<svg xmlns="http://www.w3.org/2000/svg" width="600" height="293.46" viewBox="0 0 600 293.46"><path d="M372.884 132.61c-15.637-.529-28.704-8.623-37.725-23.493-3.368-5.552-5.293-11.665-6.56-18.003-.18-.9-.262-1.795-.084-2.698.436-2.206 1.833-3.082 3.978-2.403 1.673.53 3.13 1.504 4.538 2.525 3.066 2.223 6.314 4.148 9.632 5.956 5 2.723 10.218 4.879 15.857 5.88 7.522 1.338 14.896.533 22.176-1.565 9.096-2.62 17.294-7.095 25.211-12.166 12.15-7.781 23.047-17.096 33.298-27.196C455.32 47.51 466.8 34.96 478.633 22.754c5.152-5.315 10.127-10.818 15.91-15.485 1.47-1.186 2.984-2.317 4.493-3.454 2.386-1.797 5.05-3.007 7.95-3.708 1.337-.323 2.192.072 2.648 1.373a6.942 6.942 0 0 1 .363 3.129c-.339 2.862-.952 5.646-2.037 8.335-2.497 6.187-5.593 12.063-9.156 17.69-8.496 13.418-17.379 26.567-27.82 38.576-12.913 14.853-26.56 28.99-42.241 40.967-10.124 7.731-21.056 14.16-33.123 18.48-6.733 2.41-13.647 3.861-22.736 3.953z" fill="#f5a310"/><path d="M600 3.187c-1.04 2.093-2.527 3.71-3.856 5.422-5.002 6.446-10.312 12.63-15.796 18.676-11.378 12.545-23.366 24.494-35.557 36.229-16.01 15.41-32.858 29.865-50.732 43.087-15.948 11.797-32.72 22.264-50.7 30.706-10.951 5.141-22.184 9.577-33.908 12.655a120.865 120.865 0 0 1-21.39 3.591c-7.067.55-14.008.106-20.91-1.409-7.245-1.59-13.478-5.155-19.267-9.666-4.108-3.2-6.886-7.359-9.085-11.976a12.157 12.157 0 0 1-.843-2.34c-.608-2.508.59-3.655 3.061-2.988 1.474.399 2.826 1.088 4.124 1.854 3.196 1.884 6.521 3.5 9.944 4.918 6.953 2.88 14.162 4.587 21.682 5.252 14.392 1.272 28.091-1.576 41.452-6.566a265.171 265.171 0 0 0 31.798-14.311c9.874-5.253 19.472-10.978 28.835-17.096 17.334-11.326 33.948-23.651 50.363-36.252a727.595 727.595 0 0 0 30.099-24.374c6.252-5.35 12.284-10.959 18.425-16.44a14167.51 14167.51 0 0 1 20.814-18.525c.319-.283.6-.707 1.447-.447z" fill="#69c7e5"/><path d="M371.123 90.932c-7.723-.197-14.844-2.4-20.484-8.258-3.65-3.79-5.639-8.384-6.034-13.607-.715-9.46 2.63-17.516 8.935-24.385 5.72-6.229 12.678-10.524 21.065-12.066 6.384-1.174 12.8-1.184 19.002 1.16 8.358 3.16 14.129 8.739 15.666 17.807 1.098 6.478-.223 12.699-3.537 18.345-6.881 11.725-17.096 18.688-30.568 20.764-1.263.195-2.562.159-4.045.24z" fill="#a9c501"/><path d="M54.766 211.162c16.78-4.1 26.732-21.426 21.773-37.92-3.646-12.131-15.179-21.581-29.803-21.503-13.375.071-26.751.012-40.127.023-.826 0-1.67.026-2.477.187-2.15.427-3.452 1.789-3.89 3.915-.166.805-.174 1.651-.174 2.479-.008 30.68-.009 61.36.003 92.041 0 .734-.199 1.507.264 2.276h9.373v-40.263c.985-.577 1.835-.359 2.645-.36 7.859-.019 15.718-.015 23.577-.009 1.51.002 3.163-.338 4.491.164 1.434.542 2.142 2.256 3.132 3.484 9.582 11.878 19.162 23.759 28.697 35.675.839 1.049 1.7 1.494 3.039 1.451 2.869-.091 5.742-.011 8.614-.044.455-.005 1.072.318 1.396-.452l-32.726-40.59c1.025-.26 1.608-.411 2.193-.554zm-44.123-8.67c-.215 0-.43-.077-.8-.148v-40.732c.611-.43 1.156-.316 1.672-.316 11.93-.006 23.859-.054 35.787.012 9.28.051 17.048 5.595 19.916 14.032 4.367 12.845-5.023 26.807-18.524 27.092-12.679.267-25.367.063-38.051.06zm522.803-54.414c-2.24-.414-7.512-.349-9.21.133v40.829c-.356.023-.445.058-.487.027a8.596 8.596 0 0 1-.71-.556c-4.128-3.717-8.933-6.158-14.305-7.47-8.3-2.026-16.644-2.06-24.878.173-11.29 3.061-18.854 10.24-22.191 21.502-2.701 9.113-2.721 18.367-.046 27.49 3.25 11.084 10.612 18.306 21.688 21.455 8.818 2.507 17.806 2.527 26.63.038 11.36-3.204 18.675-10.673 21.98-22.022 1.279-4.387 1.697-8.892 1.7-13.44.01-21.982.006-43.965-.004-65.948 0-.738.162-1.501-.167-2.211zm-10.861 79.751c-2.395 7.726-7.702 12.676-15.46 14.872-6.52 1.846-13.142 1.891-19.714.293-9.54-2.32-15.239-8.462-17.294-18-1.259-5.843-1.19-11.71.125-17.533 2.186-9.674 9.039-16.036 18.93-17.716a39.698 39.698 0 0 1 7.585-.57c4.191-.083 8.212.429 12.096 1.83 6.671 2.406 11.29 6.917 13.528 13.647 2.552 7.673 2.592 15.473.204 23.177zm-157.988-12.068c.01-3.262-.28-6.495-.98-9.676-2.865-13.052-10.55-21.62-23.579-25.128-6.44-1.734-12.998-1.858-19.562-1.015-5.765.74-11.162 2.606-15.949 6.011-.476.34-1.095.558-1.276 1.375l5.628 7.165c1.978-1.417 3.78-2.547 5.777-3.258 8.557-3.049 17.208-3.246 25.729-.091 7.994 2.96 12.233 9.17 14.026 17.714h-2.798c-10.202 0-20.404-.042-30.605.017-4.834.029-9.675.248-14.416 1.298-8.323 1.845-13.676 6.744-15.334 15.289-.374 1.927-.543 3.884-.595 5.855-.187 7.041 2.662 12.417 8.729 16.037 4.195 2.504 8.726 4.141 13.534 4.944 8.933 1.493 17.911 1.415 26.877.41 5.762-.647 11.219-2.391 16.2-5.42 5.684-3.456 8.627-8.49 8.596-15.205-.026-5.44-.018-10.881-.002-16.322zm-9.553 17.577c-.017 1.57-.78 2.887-1.871 4.012-1.667 1.72-3.72 2.811-5.918 3.669-3.689 1.439-7.55 2.117-11.465 2.484-7.934.744-15.832.583-23.637-1.205-2.882-.66-5.637-1.666-8.126-3.32-2.656-1.767-4.098-4.113-3.89-7.413.104-1.662.246-3.312.518-4.95.514-3.102 2.272-5.183 5.216-6.29 2.645-.994 5.404-1.38 8.196-1.564 10.787-.706 21.589-.38 32.385-.448 2.78-.018 5.561-.003 8.612-.003 0 5.224.033 10.127-.02 15.028zM138.856 181.08c-4.177-1.19-8.458-1.507-13.095-1.646-2.841.134-6.015.206-9.141.803-13.09 2.499-22.057 9.812-25.901 22.735-2.528 8.497-2.533 17.184-.357 25.756 2.969 11.697 10.3 19.5 21.929 22.88 8.73 2.538 17.637 2.552 26.413.219 11.402-3.03 19.001-10.28 22.305-21.653 2.717-9.353 2.717-18.842-.224-28.14-3.45-10.902-10.932-17.82-21.929-20.954zm13.158 45.846c-2.595 9.322-9.027 14.495-18.366 16.314-2.53.493-5.09.621-7.44.687-4.156-.036-8.056-.402-11.818-1.652-7.062-2.345-11.935-6.99-14.215-14.096-2.442-7.608-2.46-15.318-.155-22.963 2.345-7.78 7.617-12.724 15.386-14.89 6.823-1.902 13.748-1.925 20.59-.11 8.147 2.162 13.597 7.298 15.934 15.468 2.017 7.051 2.048 14.19.084 21.242zm63.206-10.208a27.972 27.972 0 0 0-6.754-2.566c-5.58-1.323-11.167-2.617-16.734-3.99-2.571-.634-5.042-1.584-7.326-2.953-1.465-.879-2.597-2.028-3.07-3.755-1.566-5.707.892-10.648 6.385-12.839 2.71-1.08 5.555-1.44 8.422-1.575 4.557-.216 9.079.035 13.304 2.008 3.467 1.62 5.616 4.253 5.934 8.188.023.284-.063.616.388.923h8.969c.027-8.418-4.385-14.818-12.264-18.154-3.958-1.676-8.114-2.354-12.362-2.494-5.937-.195-11.783.323-17.251 2.917-6.392 3.032-10.47 7.876-11.243 15.057-.928 8.624 1.663 15.091 10.46 19.382 2.11 1.03 4.324 1.792 6.606 2.334 5.213 1.24 10.438 2.428 15.645 3.689 2.494.604 4.96 1.317 7.212 2.614 1.413.814 2.585 1.851 3.237 3.37 1.589 3.7.47 8.528-2.576 11.221-1.438 1.271-3.092 2.157-4.919 2.72-4.107 1.266-8.311 1.443-12.558 1.079-2.49-.214-4.951-.598-7.258-1.627-3.633-1.62-6.021-4.223-6.485-8.323-.05-.432.056-.921-.366-1.25h-8.958c-.321.944-.169 1.77-.074 2.587.879 7.572 5.182 12.558 11.982 15.504 6.798 2.945 13.957 2.993 21.161 2.176a26.907 26.907 0 0 0 8.668-2.493c6.548-3.15 10.577-8.158 11.283-15.53.777-8.118-2.008-14.238-9.458-18.22zm176.259-.554c.012-4.552.507-9.047 2.127-13.347 2.513-6.667 7.068-11.136 14.064-12.93 2.883-.738 5.828-.815 8.779-.698 10.04.395 17.02 5.91 19.83 15.591 1.192 4.106 1.501 8.307 1.502 12.55.003 10.954-.004 21.908.011 32.862.001.812-.204 1.66.264 2.491h8.929c.306-.505.25-.967.25-1.416.003-12.162.041-24.325-.015-36.488-.027-5.863-.974-11.592-3.324-17.007-3.775-8.7-10.137-14.503-19.368-16.995-4.731-1.278-9.574-1.426-14.399-.942-11.746 1.179-20.144 7.106-24.851 18.036-2.431 5.645-3.281 11.619-3.322 17.696-.08 11.785-.026 23.57-.015 35.355 0 .583-.178 1.217.33 1.771h8.964c.39-.873.225-1.716.226-2.534.012-11.332-.012-22.664.018-33.995zm-109.857-35.627c-5.737-.275-11.48-.163-17.22-.192-.57-.003-1.207.245-1.947-.496v-32.122h-9.49v32.81h-19.493c-.001 1.397.432 2.442.835 3.485 1.025 2.654 2.805 4.374 5.722 4.895 2.384.427 4.759.814 7.182.89 1.87.058 3.738.17 5.575.256.364.9.208 1.74.208 2.559.012 13.449.015 26.898.003 40.347-.002 2.666.282 5.287 1.219 7.791 2.003 5.353 5.448 9.138 11.283 10.38 2.814.6 5.634 1.089 8.504 1.233 1.705.086 3.414.472 5.156.177v-7.814c-.999 0-1.818-.015-2.636.003-3.083.066-6.024-.543-8.72-2.038-3.434-1.904-5.314-4.741-5.3-8.815.048-13.978.014-27.955.029-41.933 0-.646-.232-1.362.545-2.186h26.626c.236-5.81-2.582-8.966-8.081-9.23zm-41.59-55.176c-.048-3.93.017-7.861-.019-11.791-.022-2.494-.152-4.987-.654-7.44-2.212-10.815-8.505-17.768-19.344-20.41-4.462-1.088-8.99-1.149-13.518-.707-4.726.461-9.16 1.9-13.117 4.604-.465.318-1.101.531-1.23 1.36l4.31 5.517c3.29-2.36 6.809-3.641 10.625-4.057 4.94-.538 9.83-.345 14.479 1.622 5.915 2.504 9.087 7.157 10.372 13.275-.879.522-1.645.323-2.373.325-7.332.017-14.663-.003-21.995.016-4.008.01-8.013.163-11.966.876-5.921 1.068-10.4 4.006-12.339 9.982-.918 2.83-1.201 5.778-.952 8.739.35 4.162 2.273 7.465 5.74 9.827 3.491 2.38 7.38 3.799 11.512 4.52 6.9 1.203 13.845 1.153 20.78.391a32.785 32.785 0 0 0 11.841-3.643c5.219-2.764 7.918-7.033 7.847-13.006zm-10.282 5.716c-2.657 1.885-5.73 2.722-8.868 3.22-7.143 1.136-14.29 1.116-21.393-.388-2.527-.535-4.936-1.394-7.074-2.9-1.79-1.261-2.8-2.911-2.702-5.17.068-1.584.111-3.166.461-4.724.489-2.174 1.82-3.596 3.858-4.4 2.134-.842 4.383-1.178 6.645-1.285 10.344-.489 20.696-.224 31.045-.252.209 0 .418.109.858.23v6.254c0 1.36-.055 2.723.013 4.08.12 2.368-1.014 4.037-2.843 5.335zm-54.295-17.737a32.829 32.829 0 0 0-.548-6.765c-1.928-10.334-7.631-17.454-17.877-20.444-6.502-1.898-13.148-1.905-19.716-.291-9.948 2.445-16.135 8.798-18.564 18.706-1.46 5.955-1.456 11.996-.067 17.97 2.246 9.664 8.131 16.027 17.725 18.698 6.838 1.903 13.75 1.808 20.585-.128 3.896-1.104 7.377-3.014 10.33-5.968l-5.246-5.18c-2.415 2.159-5.206 3.612-8.345 4.334-4.86 1.118-9.75 1.15-14.592-.037-7.963-1.952-13.158-8.285-13.584-16.504.934-.364 1.773-.208 2.59-.209 13.826-.011 27.652-.008 41.478-.008.605 0 1.21.025 1.813-.01 2.656-.15 3.96-1.515 4.018-4.164zm-49.904-3.503c.202-7.577 4.755-13.926 11.803-16.234 6.051-1.982 12.207-2.004 18.278-.063 7.175 2.293 11.784 8.54 12.124 16.297h-42.205zm128.466 32.196c2.168-.098 4.482.185 6.724-.154.376-.968.22-1.806.222-2.625.013-8.389.007-16.777.01-25.166 0-3.108.209-6.192 1.057-9.203 1.754-6.221 5.466-10.522 11.937-12.051a22.145 22.145 0 0 1 6.755-.511c8.043.596 13.297 4.971 15.365 12.765.782 2.946 1.019 5.948 1.019 8.98 0 8.464-.008 16.928.012 25.393.002.803-.244 1.66.31 2.454h7.086c.046-.575.09-.874.09-1.174.004-8.993.04-17.987-.014-26.98-.022-3.63-.344-7.254-1.33-10.768-2.311-8.244-7.122-14.239-15.502-16.93-3.877-1.245-7.887-1.42-11.891-1.057-9.701.88-16.476 5.822-20.085 14.929-1.52 3.835-2.182 7.874-2.22 11.972-.09 9.522-.055 19.044-.062 28.567 0 .508-.139 1.075.517 1.559zm-147.75-78.836h-7.042v2.833c0 23.569-.006 47.138.008 70.706.002 2.649-.106 5.287-.443 7.911-.786 6.114-2.792 11.725-6.828 16.506-.608.72-1.38 1.365-1.714 2.368l5.55 4.518c2.441-2.668 4.54-5.412 6.14-8.52 3.325-6.46 4.562-13.393 4.567-20.583.017-24.475.008-48.95-.002-73.426 0-.734.164-1.498-.237-2.313zM95.438 53.51c4.044 1.457 8.166 1.443 12.216-.01 1.53-.55 3.061-1.24 4.06-2.748-.847-.837-1.45-1.806-2.482-2.368-3.395 2.595-7.16 2.864-11.07 2.072-3.999-.81-6.558-3.927-6.689-7.986.702-.388 1.471-.202 2.208-.205 6.046-.016 12.093-.01 18.14-.01.453 0 .907.014 1.36-.003 2.095-.079 2.738-.727 2.641-2.755-.047-.98-.127-1.97-.325-2.927-1.038-5.017-3.889-8.439-8.913-9.831-3.426-.95-6.87-.912-10.285.112-4.347 1.305-7.08 4.222-8.275 8.544-.904 3.267-.892 6.594-.012 9.865 1.07 3.977 3.522 6.843 7.426 8.25zm.317-22.424c3.817-1.81 7.773-1.83 11.588-.055 2.977 1.385 4.32 3.996 4.649 7.375H91.577c-.296-2.929 1.339-5.974 4.179-7.32zm31.732 22.438c4.046 1.438 8.162 1.425 12.207-.034 1.525-.55 3.053-1.234 4.046-2.75-.89-.816-1.492-1.803-2.513-2.355-3.122 2.424-6.635 2.809-10.344 2.192-4.446-.738-6.992-3.494-7.51-8.32h2.422c6.193 0 12.386 0 18.579-.004.603 0 1.217.027 1.806-.077 1.004-.177 1.602-.785 1.633-1.856.182-6.12-2.693-11.775-9.06-13.536-3.508-.97-7.01-.972-10.494.083-4.155 1.258-6.865 4.021-8.104 8.143-1.067 3.552-1.056 7.172.017 10.724 1.14 3.772 3.581 6.463 7.315 7.79zm1.345-22.926c3.064-1.107 6.214-1.136 9.306-.098 3.683 1.237 5.424 3.996 5.906 7.904h-20.577c-.001-3.636 1.956-6.574 5.365-7.806zM39.245 48.922c1.445 2.954 1.502 5.374-.062 8.202-1.44 2.604-2.457 5.444-3.723 8.323 1.425.257 2.605.173 3.962.098l17.11-38.774c-1.506-.202-2.684-.207-3.995-.02l-9.629 21.596-9.566-21.588c-1.356-.163-2.581-.262-3.944.052.25.62.405 1.037.585 1.443 3.058 6.903 5.946 13.89 9.262 20.668zM2.724 54.21c6.798.019 13.595.008 20.393.002.516 0 1.07.107 1.624-.493-.031-.926.855-1.86.55-3.099-7.234-.163-14.365.118-21.68-.16V15.596c-1.245-.151-2.287-.172-3.515.038-.041.474-.09.766-.09 1.06-.004 11.631-.012 23.263.002 34.894.002 2.168.469 2.615 2.716 2.621zm414.131 213.35c-.819-.303-1.264.204-1.644.814-.28.448-.557.898-.83 1.35-2.702 4.456-5.396 8.915-8.11 13.363-.375.615-.626 1.347-1.442 1.846-.474-.723-.936-1.384-1.353-2.073-2.894-4.78-5.777-9.566-8.669-14.347-.358-.593-.765-1.208-1.58-1.03-.94.206-1.04.968-.991 1.776.014.226.001.454.001.68 0 7.102-.003 14.203.008 21.304 0 .59-.142 1.21.26 1.87.648.013 1.368.35 2.15-.311 0-5.993-.002-12.031.004-18.07 0-.144.064-.291.116-.43.02-.055.084-.107.14-.133.274-.127.09.245.231-.04.61.484.888 1.196 1.272 1.828 2.233 3.68 4.457 7.365 6.687 11.046.273.452.517.933.854 1.333.609.72 1.315.7 1.93.017.35-.387.592-.872.866-1.323 2.432-4 4.853-8.006 7.304-11.994.247-.403.305-1.046 1.232-1.095v19.05c.889.264 1.532.31 2.106.06.107-.127.197-.185.197-.243.032-7.93.056-15.858.084-23.787.003-.651-.15-1.213-.823-1.46zM68.68 53.821c3.647 1.052 7.314 1.017 10.926-.179 1.71-.566 3.345-1.322 4.502-2.855-.783-.915-1.493-1.78-2.502-2.475-3.295 2.632-7.053 2.94-10.972 2.17-3.497-.686-5.794-2.788-6.757-6.241a14.285 14.285 0 0 1-.048-7.613c.995-3.749 3.452-5.922 7.248-6.57 3.437-.585 6.748-.238 9.82 1.65.804-.926 1.52-1.772 2.064-2.807-1.053-1.027-2.301-1.558-3.59-1.97-3.472-1.108-6.984-1.163-10.488-.176-4.621 1.301-7.51 4.34-8.658 8.977a18.964 18.964 0 0 0 0 9.2c1.124 4.547 3.923 7.583 8.455 8.89zm402.68 215.777c0-.588.152-1.21-.299-1.847-.647.016-1.38-.325-2.147.29v6.54c0 2.19.006 4.38-.002 6.571-.008 2.13-.03 4.26-.046 6.582-.977-.608-1.286-1.315-1.709-1.916-3.915-5.555-7.803-11.128-11.728-16.676-.53-.75-.885-1.998-2.151-1.604-1.256.391-.883 1.611-.885 2.54-.022 7.1-.017 14.201-.003 21.301.001.58-.196 1.213.27 1.74.666.124 1.33.204 2.168-.154v-9.633-10.264c1.072.74 1.43 1.51 1.9 2.179 3.823 5.434 7.616 10.89 11.457 16.313.563.794.92 2.172 2.32 1.68 1.204-.424.85-1.637.852-2.568.022-7.025.015-14.05.004-21.074zm58.152 11.33c-1.446-.693-2.977-1.062-4.521-1.42-1.763-.409-3.554-.706-5.26-1.341-1.679-.624-2.915-1.573-2.927-3.571-.011-1.932.967-3.336 2.933-4.134 1.368-.555 2.803-.56 4.241-.535 3.936.065 5.284.974 6.67 4.492.656.14 1.315.227 2.066-.13.112-2.617-1.122-4.45-3.357-5.622-2.495-1.308-5.188-1.483-7.943-1.11-1.672.226-3.21.743-4.623 1.704-2.878 1.956-3.973 8.258.787 10.669 1.433.725 2.973 1.076 4.515 1.436 1.91.447 3.858.752 5.697 1.462 1.432.553 2.462 1.47 2.562 3.129.105 1.737-.52 3.133-2.061 3.985-2.538 1.403-5.252 1.192-7.944.628-2.236-.468-3.374-2.074-3.75-4.188-.815-.099-1.485-.27-2.197.203.009 2.977 1.536 4.985 4.231 5.989 3.29 1.226 6.67 1.146 9.987-.03.628-.222 1.193-.641 1.76-1.01 3.007-1.951 3.855-8.344-.866-10.606zM433.555 268.4c-.16.254-.275.537-.408.807-2.73 5.547-5.462 11.091-8.186 16.64-1.152 2.348-2.284 4.705-3.478 7.168.995.322 1.791.214 2.67.09l3.288-6.694h14.694l3.431 6.661c.878.188 1.609.255 2.604-.11-4.086-8.273-8.07-16.388-12.107-24.478-.713-1.43-1.675-1.41-2.508-.084zm-4.822 15.33l6.055-12.309 6.075 12.31h-12.13zm83.313-13.759c.333-.816.335-1.447.028-2.204-.582-.032-1.172-.091-1.761-.092a2249.71 2249.71 0 0 0-11.562-.002c-2.46.007-2.552.099-2.555 2.552-.008 6.8-.003 13.602-.003 20.403 0 .378.004.755.007 1.133.009.921.499 1.377 1.394 1.438.076.005.151.01.227.01h14.188c.405-.8.335-1.457.092-2.449h-13.318v-10.388h10.37c-.072-.907.745-1.487.258-2.33-3.525-.22-7.06.134-10.68-.216-.142-2.667-.13-5.173-.03-7.855h13.345zm-37.21-1.94c.018.634-.3 1.33.54 2.12h7.55v22.952c.888.08 1.554.26 2.39-.293v-22.763h7.75c.26-.944.364-1.582.013-2.186-3.509-.442-17.679-.313-18.243.17zM101.382 22.202l3.785-6.64c-1.644-.086-2.904-.15-4.257.038-.953 2.17-2.013 4.274-2.709 6.593 1.159.25 2.115.238 3.18.01z" fill="#5f1c4c"/></svg>